<?xml version="1.0" encoding="UTF-8"?><svg id="a" xmlns="http://www.w3.org/2000/svg" viewBox="0 0 595.29999 841.90002"><rect width="595.29999" height="841.90002" fill="#122620" stroke-width="0"/><path d="m324.60001,592c0,2.5-.10001,3.40002-3.20001,2.79999-21.20001-3.90002-42.5-7.5-63.70001-11.20001-5.60001-1-5.39999-1-5.8-6.79999-.7-10.5-1.8-21-2.7-31.40002-.7-7.79999-1.3-15.59998-1.89999-23.40002-.89999-10.60001-1.8-21.10001-2.7-31.70001-.7-7.89999-1.3-15.79999-1.89999-23.70001-.89999-10.39999-1.8-20.79999-2.7-31.10001v-.29999c-.60001-4.29999-.39999-4.60001,4-4.29999,15.39999,1.10001,30.79999,2.29999,46.20001,3.29999,10.10001.70001,20.29999,1.29999,30.39999,1.79999,4.60001.29999,4.60001.20001,4.60001,4.70001v75.19998c-.30002.1001-.70001,50.80011-.60001,76.1001Z" fill="#d5ac5c" stroke-width="0"/><path d="m258.29999,589c0,.29999.20001,1.5.20001,2.59998.10001,1.79999,1.10001,2.59998,2.79999,3,18,4.09998,36,8.29999,53.89999,12.40002,7.20001,1.70001,14.39999,3.20001,21.60001,4.90002,1.70001.40002,3.20001-.09998,4.70001-1,9.29999-6,18.60001-12.09998,28-18,1.70001-1.09998,3.29999-3.40002,5.79999-1.5,1.89999,1.40002,2.70001,5.40002,1.79999,8-.60001,1.59998-1.60001,2.79999-3,3.79999-10.29999,6.79999-20.60001,13.5-30.89999,20.5-4.20001,2.79999-8.5,3.20001-13.20001,2.09998-15.79999-3.70001-31.60001-7.40002-47.5-11.09998-13.60001-3.20001-27.10001-6.29999-40.7-9.59998-4.5-1.09998-6-2.79999-6.3-6.40002-.2-3.59998,1.7-6.59998,5.39999-8.09998,4.8-2,9.60001-3.90002,14.5-5.79999q2.89999-1.09998,2.89999,2.09998c.00003.5.00003.89996.00003,2.09998Z" fill="#d5ac5c" stroke-width="0"/><path d="m358.39999,377.10001c-.39999,15.20001-1.89999,30.20001-2.89999,45.29999-.70001,9.79999-1.20001,19.60001-1.89999,29.5-.89999,13-1.89999,26-2.79999,39-.70001,10.60001-1.20001,21.19998-1.89999,31.80002-.79999,12.40002-1.89999,24.79999-2.70001,37.20001-.39999,5.70001-.60001,11.40002-1.29999,17-.10001.70001-1.60001.59998-1.60001-.09998.20001-21.09998.5-42.20001.79999-63.20001.20001-13.5.20001-27.10001.39999-40.60001.29999-18.89999.60001-37.70001,1.10001-56.60001.10001-4.29999.5-8.70001.5-13,0-1.60001.79999-3,1.39999-4.39999,3.39999-7.60001,6.79999-15.10001,10.29999-22.60001.5-.10004.80002.09998.60001.69998Z" fill="#d5ac5c" stroke-width="0"/><path d="m352.20001,325.89999c-17.20001,0-34.5,0-51.70001-.10001-13.89999-.10001-27.89999.20001-41.79999-.39999-5.39999-.20001-10.10001,1.39999-13.60001,5.79999-1.39999,1.79999-2.5,3.60001-3.5,5.70001-6.89999,14.79999-13.8,29.70001-20.60001,44.60001-2.5,5.39999-5.2,10.79999-6.60001,16.60001-2.3,9.20001,2.10001,16.10001,11.2,17.10001,5.89999.70001,11.89999.89999,17.89999,1.29999,6.5.39999,12.90001.79999,19.40001,1.29999,9.20001.70001,18.5,1.5,27.70001,2.10001,7.60001.5,15.29999.79999,22.89999,1.39999,5.29999.39999,9.70001-1.20001,13.29999-5,1.89999-2.10001,3.10001-4.60001,4.20001-7.20001,8.79999-20.70001,17.5-41.5,26.29999-62.20001,1.70001-4,3.79999-7.79999,4-11.60001-.09998-5.99997-3.59998-9.39996-9.09998-9.39996Zm-8.30002,17.39999c-4.29999,10.29999-8.70001,20.5-13.10001,30.79999-4,9.5-8.10001,18.89999-12.10001,28.39999-1.39999,3.39999-3.60001,4.89999-7.29999,4.70001-11.5-.79999-22.89999-1.5-34.39999-2.20001-6.20001-.39999-12.29999-.79999-18.5-1.29999-8.89999-.60001-17.7-1.10001-26.60001-1.79999-3.3-.20001-4.3-1.89999-3-5.29999,1.8-4.60001,4-9.20001,6.10001-13.70001,5.8-12.60001,11.60001-25.10001,17.3-37.79999,1.89999-4.20001,4.7-6.10001,9.40001-6,13.20001.20001,26.29999.10001,39.5.10001,0,0,26.70001.10001,40.10001.10001,4.09998-.10001,4.29999.09998,2.59998,3.99997Z" fill="#d5ac5c" stroke-width="0"/><path d="m371.70001,215.7c-2.89999-.5-5.79999,0-8.60001.3-15.29999,1.89999-30.70001,3.60001-46,5.39999-13.89999,1.60001-27.79999,3.5-41.70001,5-11.10001,1.2-18.89999,8.39999-20.5,19.5-2.8,19.20001-5.7,38.29999-8.60001,57.5-1.8,11.70001,4,18.89999,14.79999,18.79999,14.60001-.10001,29.20001,0,43.79999,0,0-.29999,27.29999-.5,42.39999-.89999,11.39999.29999,20.39999-8.5,22.10001-19,1.39999-8.70001,2.89999-17.29999,4.39999-25.89999,2.70001-15.60001,5.70001-31.10001,7.70001-46.8.80002-6.79999-3.39996-12.59999-9.79996-13.89999Zm-3.10001,17.40001c-1,7-2.29999,13.89999-3.39999,20.8-2.5,15.2-5,30.40001-7.5,45.59999-1,6.29999-3.89999,8.70001-10.79999,8.79999-13.10001.29999-26.10001.29999-39.20001.70001-8.60001.29999-17.20001.39999-25.79999.89999h-18.89999c-3.89999,0-5.10001-1.10001-4.70001-4.79999,1-8.20001,2.29999-16.39999,3.5-24.70001,1.70001-10.89999,3.39999-21.70001,5.10001-32.60001.70001-4.3,2.79999-8,8.20001-8.5,9.89999-.89999,19.70001-2.39999,29.60001-3.60001,15.29999-1.89999,30.70001-3.7,46-5.60001,4.60001-.60001,9.20001-1.10001,13.79999-1.5,3.59998.00003,4.59998,1.00003,4.09998,4.50003Z" fill="#d5ac5c" stroke-width="0"/><path d="m214.8,675.90002c0,.90002-.2,1.59998-.60001,2s-1,.59998-1.7.59998h-15.89999c0,1.09998.10001,2.09998.39999,3s.7,1.70001,1.3,2.29999,1.3,1.09998,2.2,1.5,2,.5,3.3.5,2.39999-.09998,3.39999-.29999,1.8-.40002,2.5-.59998,1.3-.40002,1.8-.59998.8-.29999,1.10001-.29999c.2,0,.3,0,.39999.09998s.2.20001.3.40002.10001.40002.2.70001,0,.70001,0,1.20001v1.09998c0,.29999,0,.59998-.10001.79999s-.10001.40002-.2.5-.2.29999-.3.40002-.5.29999-1,.59998-1.3.5-2.2.70001-1.89999.40002-3,.59998-2.3.20001-3.60001.20001c-2.3,0-4.39999-.29999-6.10001-.90002s-3.2-1.5-4.39999-2.70001-2-2.70001-2.60001-4.5-.89999-3.90002-.89999-6.40002c0-2.29999.3-4.40002.89999-6.29999s1.5-3.40002,2.60001-4.70001,2.60001-2.29999,4.2-3,3.5-1,5.60001-1c2.2,0,4.10001.29999,5.60001,1s2.8,1.5,3.8,2.70001,1.7,2.5,2.2,4.09998.7,3.29999.7,5.09998v1.20007h.10001Zm-7.2-2.10004c.10001-2.09998-.39999-3.70001-1.2-4.90002s-2.3-1.79999-4.10001-1.79999c-.89999,0-1.8.20001-2.39999.5s-1.3.79999-1.7,1.40002-.8,1.29999-1.10001,2.09998-.39999,1.70001-.39999,2.59998h10.89999v.10004Z" fill="#b68d40" stroke-width="0"/><path d="m233.8,676c0,1.09998-.10001,1.90002-.3,2.40002s-.60001.70001-1,.70001h-12.2c-.5,0-.8-.20001-1.10001-.70001s-.3-1.20001-.3-2.40002c0-1.09998.10001-1.90002.3-2.29999s.60001-.70001,1.10001-.70001h12.2c.2,0,.39999,0,.60001.09998s.3.29999.39999.5.2.5.2.90002.10001,1,.10001,1.5Z" fill="#fff" stroke-width="0"/><path d="m264.89999,656c0,.59998,0,1-.10001,1.5s-.10001.70001-.20001,1-.20001.40002-.39999.5-.29999.20001-.5.20001h-9.5v30.59998c0,.20001-.10001.40002-.2.5s-.3.29999-.60001.40002-.7.20001-1.2.20001-1.10001.09998-1.89999.09998-1.39999,0-1.89999-.09998-.89999-.09998-1.2-.20001-.5-.20001-.60001-.40002-.2-.29999-.2-.5v-30.59998h-9.39999c-.2,0-.39999-.09998-.5-.20001s-.3-.29999-.39999-.5-.2-.59998-.2-1-.10001-.90002-.10001-1.5,0-1.09998.10001-1.5.10001-.70001.2-1,.2-.40002.39999-.5.3-.20001.5-.20001h26.70001c.20001,0,.29999.09998.5.20001s.29999.29999.39999.5.20001.59998.20001,1,.09998.90002.09998,1.5Z" fill="#fff" stroke-width="0"/><path d="m287.89999,675.90002c0,.90002-.20001,1.59998-.60001,2s-1,.59998-1.70001.59998h-15.89999c0,1.09998.10001,2.09998.39999,3s.70001,1.70001,1.29999,2.29999,1.29999,1.09998,2.20001,1.5,2,.5,3.29999.5,2.39999-.09998,3.39999-.29999,1.79999-.40002,2.5-.59998,1.29999-.40002,1.79999-.59998.79999-.29999,1.10001-.29999c.20001,0,.29999,0,.39999.09998s.20001.20001.29999.40002.10001.40002.20001.70001,0,.70001,0,1.20001v1.09998c0,.29999,0,.59998-.10001.79999s-.10001.40002-.20001.5-.20001.29999-.29999.40002-.5.29999-1,.59998-1.29999.5-2.20001.70001-1.89999.40002-3,.59998-2.29999.20001-3.60001.20001c-2.29999,0-4.39999-.29999-6.10001-.90002s-3.20001-1.5-4.39999-2.70001-2-2.70001-2.60001-4.5-.89999-3.90002-.89999-6.40002c0-2.29999.29999-4.40002.89999-6.29999s1.5-3.40002,2.60001-4.70001,2.60001-2.29999,4.20001-3,3.5-1,5.60001-1c2.20001,0,4.10001.29999,5.60001,1s2.79999,1.5,3.79999,2.70001,1.70001,2.5,2.20001,4.09998.70001,3.29999.70001,5.09998v1.20007h.10004Zm-7.19998-2.10004c.10001-2.09998-.39999-3.70001-1.20001-4.90002s-2.29999-1.79999-4.10001-1.79999c-.89999,0-1.79999.20001-2.39999.5s-1.29999.79999-1.70001,1.40002-.79999,1.29999-1.10001,2.09998-.39999,1.70001-.39999,2.59998h10.90002v.10004Z" fill="#fff" stroke-width="0"/><path d="m313.70001,685.59998v1.29999c0,.39996-.10001.59998-.10001.90002s-.10001.40002-.20001.59998-.20001.29999-.5.59998-.60001.5-1.20001.79999-1.20001.59998-1.89999.90002-1.5.5-2.39999.59998-1.70001.20001-2.60001.20001c-2,0-3.79999-.29999-5.29999-.90002s-2.89999-1.5-3.89999-2.79999-1.89999-2.70001-2.39999-4.5-.79999-3.79999-.79999-6c0-2.59998.29999-4.90002,1-6.79999s1.60001-3.5,2.70001-4.70001,2.60001-2.20001,4.20001-2.79999,3.39999-.90002,5.29999-.90002c.79999,0,1.5.09998,2.29999.20001s1.5.29999,2.10001.59998,1.20001.5,1.79999.79999.89999.5,1.10001.79999.39999.40002.5.5.20001.29999.20001.59998.10001.5.10001.90002v1.20001c0,1.09998-.10001,1.90002-.29999,2.40002s-.39999.70001-.79999.70001c-.29999,0-.70001-.09998-1.10001-.40002s-.79999-.59998-1.29999-.90002-1.10001-.59998-1.79999-.90002-1.5-.40002-2.5-.40002c-1.89999,0-3.39999.70001-4.39999,2.20001s-1.5,3.59998-1.5,6.5c0,1.40002.10001,2.59998.39999,3.70001s.60001,2,1.10001,2.70001,1.10001,1.29999,1.89999,1.59998,1.60001.5,2.60001.5,1.89999-.20001,2.60001-.5,1.39999-.59998,1.89999-1,1-.70001,1.39999-1,.70001-.5.89999-.5c.20001,0,.29999,0,.39999.09998s.20001.29999.29999.5.10001.59998.20001,1-.00006,1.00018-.00006,1.60016Z" fill="#fff" stroke-width="0"/><path d="m344,689.79999c0,.20001-.10001.40002-.20001.5s-.29999.29999-.60001.40002-.60001.20001-1.10001.20001-1.10001.09998-1.79999.09998-1.29999,0-1.79999-.09998-.89999-.09998-1.10001-.20001-.5-.20001-.60001-.40002-.20001-.29999-.20001-.5v-14.90002c0-1.29999-.10001-2.29999-.29999-3s-.5-1.29999-.79999-1.90002-.79999-.90002-1.39999-1.20001-1.20001-.40002-1.89999-.40002c-.89999,0-1.89999.29999-2.79999,1s-2,1.70001-3,3v17.40002c0,.20001-.10001.40002-.20001.5s-.29999.29999-.60001.40002-.70001.20001-1.10001.20001-1.10001.09998-1.79999.09998-1.29999,0-1.79999-.09998-.79999-.09998-1.10001-.20001-.5-.20001-.60001-.40002-.20001-.29999-.20001-.5v-38.5c0-.20001.10001-.40002.20001-.5s.29999-.29999.60001-.40002.70001-.20001,1.10001-.20001,1.10001-.09998,1.79999-.09998,1.29999,0,1.79999.09998.79999.09998,1.10001.20001.5.20001.60001.40002.20001.29999.20001.5v14.40002c1.29999-1.20001,2.60001-2.20001,3.89999-2.79999s2.70001-.90002,4.10001-.90002c1.79999,0,3.29999.29999,4.5.90002s2.20001,1.40002,3,2.40002,1.29999,2.20001,1.60001,3.59998.5,3,.5,4.90002v16h-.00003Z" fill="#fff" stroke-width="0"/><path d="m375.5,687.59998c0,.59998,0,1-.10001,1.5s-.10001.70001-.20001,1-.20001.40002-.39999.5-.29999.20001-.5.20001h-21.79999c-.39999,0-.79999,0-1.10001-.09998s-.60001-.20001-.79999-.5-.29999-.59998-.39999-1-.10001-1-.10001-1.70001c0-.59998,0-1.20001.10001-1.70001s.20001-.90002.29999-1.20001.39999-.70001.60001-1.09998.60001-.70001,1-1.09998l6.60001-7c1.29999-1.40002,2.39999-2.59998,3.20001-3.70001s1.39999-2.09998,1.89999-3.09998.79999-1.79999.89999-2.59998.20001-1.5.20001-2.20001c0-.59998-.10001-1.29999-.29999-1.79999s-.5-1.09998-.89999-1.5-.89999-.79999-1.5-1-1.29999-.40002-2.10001-.40002c-1.20001,0-2.20001.09998-3.10001.40002s-1.70001.59998-2.29999,1-1.20001.70001-1.70001,1-.79999.5-1.10001.5c-.20001,0-.29999-.09998-.5-.20001s-.20001-.29999-.29999-.59998-.10001-.59998-.20001-1.09998-.10001-1-.10001-1.70001v-1.09998c0-.29999.10001-.59998.10001-.79999s.10001-.40002.20001-.59998.29999-.40002.5-.59998.70001-.5,1.29999-.90002,1.5-.70001,2.39999-1.09998,2-.59998,3.20001-.90002,2.39999-.40002,3.60001-.40002c2,0,3.70001.20001,5.20001.70001s2.70001,1.20001,3.70001,2.09998,1.70001,1.90002,2.20001,3.20001.70001,2.5.70001,3.90002c0,1.20001-.10001,2.40002-.39999,3.59998s-.70001,2.5-1.5,3.90002-1.79999,2.90002-3.10001,4.59998-3.10001,3.59998-5.39999,5.79999l-4.39999,4.5h14.89999c.20001,0,.39999.09998.5.20001s.29999.29999.39999.5.20001.59998.29999,1,.29993,1.09985.29993,1.59985Z" fill="#fff" stroke-width="0"/><path d="m407.10001,679.90002c0,1-.10001,1.79999-.29999,2.29999s-.5.79999-.79999.79999h-3.39999v6.90002c0,.20001-.10001.40002-.20001.5s-.29999.29999-.60001.40002-.70001.20001-1.10001.20001-1.10001.09998-1.79999.09998-1.29999,0-1.79999-.09998-.89999-.09998-1.10001-.20001-.5-.20001-.60001-.40002-.20001-.29999-.20001-.5v-6.90002h-14.5c-.29999,0-.5,0-.70001-.09998s-.39999-.20001-.5-.5-.29999-.59998-.29999-1.09998-.10001-1.09998-.10001-1.79999v-1.59998c0-.39996.10001-.90002.10001-1.20001s.20001-.70001.29999-1.09998.29999-.70001.5-1.09998l11.79999-20.79999c.10001-.20001.29999-.29999.5-.5s.60001-.20001,1-.29999,1-.20001,1.60001-.20001,1.39999-.09998,2.29999-.09998c1,0,1.79999,0,2.5.09998s1.29999.09998,1.70001.20001.70001.20001.89999.40002.29999.29999.29999.59998v22.79999h3.39999c.29999,0,.60001.20001.79999.70001s.30005,1.39984.30005,2.49988Zm-11.89999-20.60004h0l-10,17.40002h10v-17.40002Z" fill="#fff" stroke-width="0"/></svg>