<?xml version="1.0" encoding="utf-8"?>
<!-- Generator: Adobe Illustrator 28.0.0, SVG Export Plug-In . SVG Version: 6.00 Build 0)  -->
<svg version="1.1" id="Layer_1" xmlns="http://www.w3.org/2000/svg" xmlns:xlink="http://www.w3.org/1999/xlink" x="0px" y="0px"
	 viewBox="0 0 650 650" style="enable-background:new 0 0 650 650;" xml:space="preserve">
<style type="text/css">
	.st0{fill:#0E1C2B;}
	.st1{fill:#00B1A9;}
</style>
<g>
	<path class="st1" d="M419.7,292.1c3.3-3.4,6.3-7.2,9.6-10.6c1.2-1.3,3-2.2,4.6-3c3.4-1.5,6.6-0.5,9.1,1.8c2.6,2.3,3.7,5.6,2.7,8.9
		c-0.7,2.4-2,4.8-3.8,6.6C434.7,303,427.4,310,420,317c-3.3,3.1-9.2,11.4-8.9,12.4c0.7,2.3,3.3,11.3,5.8,12.3
		c9.7,3.9,19.5,7.8,29.1,11.9c22,9.2,44.1,18.5,66.1,27.8c3,1.3,6,2.5,9,3.7c0.9,0.4,2,0.6,3.2,0.9c0.7-1.8,1.4-3.4,1.9-5
		c3.3-11.4,6.2-22.9,7.3-34.8c0.5-5.3,1-10.7,1.3-16c0.5-6.9,6.5-11,12.8-8.7c3.8,1.4,6.2,5.4,6,10.1
		c-1.9,37.6-12.2,72.7-30.9,105.4c-12.1,21.1-27.1,39.7-45.2,55.9c-30.1,27-64.9,45.3-104.5,53.9c-12.1,2.6-24.3,4.5-36.7,4.9
		c-5.7,0.2-33.2-0.6-41.2-1.4c-17.5-1.7-34.4-6.1-50.9-12.1c-24.4-8.8-47.1-21.1-67.2-37.5c-39.3-32-66.1-72.2-78.5-121.6
		c-2.5-9.8-4.1-19.8-5.3-29.9c-1.6-13-1.8-26.1-1.1-39.2c2.2-43.2,15.7-82.6,40.5-118.1c5.9-8.5,34.4-38.5,39.1-42.5
		c15.9-13.2,33.1-24.4,51.9-32.8c17-7.6,34.7-12.9,53.1-15.7c13.7-2,27.4-3,41.2-2.7c2.8,0.1,5.6,0.5,8.4,0.7
		c1.7,0.2,2.7,1.2,3.5,2.6c2.2,3.9,4.5,7.7,6.6,11.5c19.1,34.4,33.5,70.8,42.5,109.1c3,12.8,5.2,25.8,7.3,38.8
		c1.8,11,2.9,22.2,4.1,33.3c0.4,3.8,0.5,7.7,0.8,11.5C391.9,312,403.5,309.6,419.7,292.1z"/>
	<path class="st1" d="M517.6,404.4c-1.3-0.6-2.1-1.1-3-1.4c-26.2-11-52.4-22.1-78.7-33.1c-8.5-3.6-17-7-25.5-10.6
		c-1.5-0.6-2.7-1-4.1,0.5c-4,4.5-8.9,7.5-14.6,9.2c-1.5,0.4-2.3,1.1-2.6,2.8c-1.3,8.9-2.7,17.7-4.2,26.6c-3.2,18.9-8,37.3-13.8,55.5
		c-8.1,25.6-18.6,50.3-30.7,74.2c-0.6,1.1-1.1,2.2-1.8,3.7c1.4,0,2.2,0,3,0c9.5-0.2,18.8-1.8,28-3.9c20.2-4.4,39.2-12,57.1-22.2
		c20.6-11.7,38.7-26.4,54.5-44.1c3.8-4.2,13.1-14.8,13.8-16c0.9-1.5,1.5-3.2,2.4-4.6c6.6-9.7,12.4-19.8,17.3-30.4
		C515.8,408.8,516.6,406.7,517.6,404.4z"/>
	<path class="st1" d="M209,362c-0.9,22.7,21.1,92.1,33.2,104.7c37.7-37.9,75.4-75.8,113-113.7c-1.2-4-1.2-4-5-4c-0.8,0-1.6,0-2.5,0
		c-27.9,0-55.9,0-83.8,0c-12.9,0-25.7,0-38.6,0c-1.8,0-3.5-0.1-4.6,1.8C218,355.6,214,359.3,209,362z"/>
	<path class="st1" d="M113,349.1c0.6,17.1,8.4,49.6,26,79.3c17.4,29.4,40.7,52.9,69.6,71.4c6.5-6.3,12.9-12.4,19.2-18.6
		c-0.6-1.2-1-2.1-1.4-2.9c-11.8-21.5-21-43.9-27.4-67.6c-3.9-14.7-6.7-29.5-7.9-44.6c-0.2-2-0.9-3.2-2.8-4c-3.9-1.6-6.9-4.3-9.6-7.5
		c-1.5-1.8-2.8-3.7-4.2-5.6C154.1,349.1,133.7,349.1,113,349.1z"/>
	<path class="st1" d="M252.2,483.5c0.3,0.8,0.3,1.2,0.5,1.5c10.9,16.1,23.3,30.9,37.6,44.2c1,0.9,2.4,1.6,3.7,1.7
		c5.4,0.7,11,0.6,16.3,1.8c5.6,1.2,7.6-1.5,9.8-5.9c13.6-27.9,26.4-56.1,35.7-85.8c6.7-21.6,11.6-43.6,14.9-66
		c0.3-2.1,0.5-4.3,0.7-6.5c-1.3-0.5-2.2-0.9-3.1-1.3c-0.3-0.2-0.5-0.4-0.8-0.6c-1,1.3-1.8,2.8-2.9,3.9c-6.9,7-13.9,13.9-20.8,20.8
		c-7,7-14.1,14-21.1,21.1c-6.8,7-14.1,13.6-20.8,20.6c-0.6,0.6-1.3,0.9-1.9,1.5c-0.8,0.7-1.6,1.4-2.3,2.2c-1.4,1.6-2.6,3.3-4.1,4.8
		c-8.5,8.6-17,17.1-25.4,25.7C262.7,472.5,257.5,478,252.2,483.5z"/>
	<path class="st1" d="M190.2,315.2c0.1-0.4,0.2-0.8,0.3-1.3c0.9-6.2,1.8-12.4,2.6-18.7c1.7-12.5,4.7-24.7,9.1-36.5
		c1-2.6,0.8-4.5-1.1-6.6c-3.5-4-5.8-8.9-6.4-14.2c-0.3-3.1-1.7-4.1-4.2-5.1c-11.6-4.7-23-9.5-34.6-14.3c-4.6-1.9-9.2-3.8-14.1-5.8
		c-22,35.9-32.3,74.6-30.6,116.8c21.3,0,42.1,0,63,0C181.9,318.9,182.2,319.6,190.2,315.2z"/>
	<path class="st1" d="M251.8,244.3c36.6,24.6,73.5,49.1,110.2,73.3c3.8-2.4,7.2-4.5,10.7-6.7c0-1.5,0.1-3.1,0-4.7
		c-0.6-6.3-1.2-12.5-2-18.8c-1.3-10.6-2.7-21.2-4.2-31.8c-2-14.2-5.3-28.1-9.2-41.9c-0.4-1.4-0.9-2.8-1.4-4.2
		c-1.4,0.3-2.4,0.4-3.4,0.6c-15.1,3.7-30.3,7.3-45.4,11.2c-16.9,4.3-33.8,8.8-50.7,13.1c-1.9,0.5-2.7,1.5-3.1,3.2
		C252.9,239.7,252.4,241.7,251.8,244.3z"/>
	<path class="st1" d="M344.1,329.7c0.1-0.3,0.2-0.5,0.3-0.8c-34.8-23.2-69.6-46.3-104.3-69.5c-3,1.1-6.1,2.6-9.4,3.4
		c-3.4,0.8-6.9,1.1-10.7,1.6c-6.5,16.6-9.2,34.3-11.2,52.3c6,2.9,9.7,7.6,12.9,12.9C262.6,329.7,303.4,329.7,344.1,329.7z"/>
	<path class="st1" d="M288.1,119.8c-27.7,2.5-53.1,11.6-76.8,25.8c-25.8,15.4-53.1,42.7-57.2,51.3c14.9,6.3,29.7,12.7,44.3,18.9
		c1.7-1.3,3.1-2.4,4.5-3.5c0.8-0.7,1.4-1.5,2.2-2.3c1.2-1.2,2.2-2.8,3.6-3.6c2.7-1.5,5.7-2.8,8.7-3.6c3.1-0.8,6.4-0.8,9.8-1.2
		C243.4,171.5,264.5,144.8,288.1,119.8z"/>
	<path class="st1" d="M250,216.7c33-9.9,66.4-17.5,99.6-25.4c-0.1-8.8-25.8-66-32-71.5c-20.3,15.1-68.3,74.6-72.9,90.1
		C246.4,212.1,248.1,214.3,250,216.7z"/>
	<path class="st1" d="M227,509.9c9.4,5,19.5,9.2,30.8,12.5c-6.8-8.7-13-16.7-19.4-24.9C234.6,501.6,231,505.6,227,509.9z"/>
	<path class="st1" d="M351.4,348.2c0-0.1,0-0.1,0-0.2c-42.5,0-84.9,0-127.4,0c0,0.1,0,0.1,0,0.2C266.5,348.2,309,348.2,351.4,348.2z
		"/>
	<path class="st1" d="M342.3,331.5c0-0.1,0-0.2,0-0.3c-39.5,0-78.9,0-118.4,0c0,0.1,0,0.2,0,0.3
		C263.4,331.5,302.8,331.5,342.3,331.5z"/>
	<path class="st1" d="M481.8,219.2c0.6,14-11.5,26.5-26,26.3c-14.6-0.3-25.7-12.2-25.7-26.3c0-13.9,11-26.7,26.3-26.4
		C471.5,193,482.5,205.7,481.8,219.2z"/>
	<path class="st1" d="M454.9,132.9c-0.3-10.6,8.2-20.8,20.6-20.7c11.3,0.1,20.1,8.4,20.2,20.7c0.1,12.7-9,21.3-20.4,21.3
		C461.3,154.1,454.3,142.1,454.9,132.9z"/>
	<path class="st1" d="M542.2,158.8c8.9-0.3,15.9,6.4,15.9,15.6c-0.1,9.2-7.7,14.8-15.4,15c-8.8,0.2-16.3-7-16.1-15.5
		C526.7,166.4,532.7,158.7,542.2,158.8z"/>
	<path class="st0" d="M517.6,404.4c-1,2.3-1.8,4.4-2.7,6.3c-5,10.6-10.8,20.7-17.3,30.4c-1,1.4-12.4,16.4-16.2,20.6
		c-15.8,17.7-33.9,32.4-54.5,44.1c-18,10.2-37,17.7-57.1,22.2c-9.2,2-18.5,3.6-28,3.9c-0.8,0-1.6,0-3,0c0.7-1.5,1.2-2.6,1.8-3.7
		c12.1-24,22.6-48.6,30.7-74.2c5.8-18.2,10.7-36.6,13.8-55.5c1.5-8.8,2.8-17.7,4.2-26.6c0.2-1.7,1.1-2.4,2.6-2.8
		c5.7-1.7,10.7-4.7,14.6-9.2c1.3-1.5,2.5-1.1,4.1-0.5c8.5,3.6,17,7,25.5,10.6c26.2,11,52.4,22,78.7,33.1
		C515.5,403.3,516.3,403.7,517.6,404.4z"/>
	<path class="st0" d="M209,362c5-2.7,9-6.4,11.8-11.3c1.1-1.9,2.8-1.8,4.6-1.8c12.9,0,25.7,0,38.6,0c27.9,0,55.9,0,83.8,0
		c0.8,0,1.6,0,2.5,0c3.7,0,6.7,0-108,117.8C230.1,454.1,208.1,384.7,209,362z"/>
	<path class="st0" d="M113,349.1c20.7,0,41.1,0,61.6,0c1.4,1.9,2.7,3.8,4.2,5.6c2.6,3.2,5.7,5.9,9.6,7.5c1.9,0.8,2.6,2,2.8,4
		c1.2,15.1,4,30,7.9,44.6c6.4,23.6,15.6,46.1,27.4,67.6c0.4,0.8,0.8,1.6,1.4,2.9c-6.4,6.1-12.7,12.3-19.2,18.6
		c-28.9-18.5-52.2-42-69.6-71.4C121.4,398.7,113.6,366.1,113,349.1z"/>
	<path class="st0" d="M252.2,483.5c5.3-5.5,10.5-11,15.8-16.4c8.4-8.6,17-17.1,25.4-25.7c1.5-1.5,2.7-3.2,4.1-4.8
		c0.7-0.8,1.5-1.5,2.3-2.2c0.6-0.5,1.4-0.9,1.9-1.5c6.7-7.1,14-13.7,20.8-20.6c7-7.1,14-14.1,21.1-21.1c6.9-6.9,13.9-13.8,20.8-20.8
		c1.1-1.2,3.5-3.6,3.7-3.4c0.9,0.4,15.2,2.6-12.4,73.8c-9.3,29.7-22,57.9-35.7,85.8c-2.2,4.5-4.1,6.6-9.8,5.9
		c-10.5-1.2-19.1-2.6-20-3.5c-14.3-13.2-26.7-28.1-37.6-44.2C252.5,484.7,252.5,484.3,252.2,483.5z"/>
	<path class="st0" d="M190.2,315.2c-8,4.4-8.3,3.6-15.9,14.4c-20.8,0-41.7,0-63,0c-1.7-42.2,8.6-80.9,30.6-116.8
		c4.9,2,9.5,3.9,14.1,5.8c11.5,4.8,23,9.6,34.6,14.3c2.5,1,12.5,23.3,11.6,25.9c-4.4,11.8-7.4,24-9.1,36.5
		c-0.8,6.2-1.7,12.4-2.6,18.7C190.4,314.4,190.3,314.8,190.2,315.2z"/>
	<path class="st0" d="M251.8,244.3c0.6-2.6,1-4.6,1.4-6.6c0.4-1.7,1.2-2.7,3.1-3.2c16.9-4.3,33.8-8.8,50.7-13.1
		c15.1-3.8,30.3-7.5,45.4-11.2c1-0.2,2-0.4,3.4-0.6c0.5,1.4,1,2.8,1.4,4.2c3.8,13.8,7.2,27.7,9.2,41.9c1.5,10.6,2.9,21.2,4.2,31.8
		c0.8,6.2,1.4,12.5,2,18.8c0.2,1.6,0,3.2,0,4.7C369.2,313.1,365,318.2,251.8,244.3z"/>
	<path class="st0" d="M344.1,329.7c-40.8,0-81.5,0-122.4,0c-3.2-5.3-6.9-10-12.9-12.9c2-18,4.8-35.7,11.2-52.3
		c3.8-0.6,7.4-0.8,10.7-1.6c3.2-0.8,6.3-2.3,9.4-3.4c34.7,23.1,69.5,46.3,104.3,69.5C344.3,329.1,344.2,329.4,344.1,329.7z"/>
	<path class="st0" d="M288.1,119.8c-23.6,24.9-44.6,51.7-60.9,81.8c-6.5-0.2-24.7,4.7-28.8,14.2c-14.6-6.2-29.5-12.6-44.3-18.9
		c4.1-8.6,31.4-36,57.2-51.3C235,131.5,260.3,122.4,288.1,119.8z"/>
	<path class="st0" d="M250,216.7c-1.9-2.4-3.6-4.6-5.3-6.8c4.5-15.6,52.6-75,72.9-90.1c6.2,5.5,31.8,62.7,32,71.5
		C316.3,199.2,283,206.9,250,216.7z"/>
	<path class="st0" d="M227,509.9c3.9-4.3,7.6-8.3,11.3-12.4c6.4,8.3,12.7,16.3,19.4,24.9C246.6,519.1,236.5,514.9,227,509.9z"/>
	<ellipse class="st1" cx="223.9" cy="232.4" rx="32.9" ry="31.1"/>
	
		<ellipse transform="matrix(0.6751 -0.7377 0.7377 0.6751 -187.0551 257.0436)" class="st1" cx="198.3" cy="340.9" rx="26.2" ry="29"/>
	<ellipse class="st1" cx="382.3" cy="341.9" rx="34.6" ry="31.1"/>
</g>
</svg>
